<svg version="1.1" id="Layer_1" xmlns="http://www.w3.org/2000/svg" xmlns:xlink="http://www.w3.org/1999/xlink" x="0px" y="0px"
	 width="100%" viewBox="0 0 1700 1079" enable-background="new 0 0 1700 1079" xml:space="preserve">
<path fill="none" opacity="0" stroke="none" 
	d="
M1224.000000,1080.000000 
	C816.000061,1080.000000 408.500153,1080.000000 1.000164,1080.000000 
	C1.000109,720.333496 1.000109,360.666931 1.000055,1.000206 
	C2.333196,1.000000 3.666392,1.000000 4.999588,1.000000 
	C570.332825,1.000000 1135.666016,1.000000 1700.999512,1.000000 
	C1700.999634,360.666382 1700.999634,720.332764 1700.999756,1079.999512 
	C1542.166626,1080.000000 1383.333374,1080.000000 1224.000000,1080.000000 
M348.864014,107.180573 
	C345.363922,117.011665 341.915863,126.861656 338.351349,136.669327 
	C333.290405,150.594299 335.646423,164.181183 343.521301,175.689789 
	C360.363251,200.303146 378.453644,224.064880 396.130493,248.103485 
	C408.712830,265.214111 421.736115,282.007111 434.051788,299.305573 
	C448.282959,319.294556 462.115570,339.573456 475.831696,359.921631 
	C499.803680,395.484589 523.071838,431.500763 538.882263,471.640442 
	C544.254211,485.278931 548.504761,499.363373 553.045654,513.316345 
	C553.386353,514.363159 552.317200,516.617981 551.263611,517.257751 
	C533.430847,528.086548 515.668579,539.051147 497.528046,549.346802 
	C484.097290,556.969482 470.423737,564.287720 456.368378,570.661072 
	C425.702118,584.566833 394.745728,597.835022 363.855560,611.243103 
	C356.811859,614.300598 349.556000,616.869141 342.397797,619.662720 
	C342.317780,620.276733 342.237793,620.890747 342.157776,621.504761 
	C343.949585,622.404053 345.677399,623.906860 347.543518,624.104614 
	C359.619843,625.384521 371.745300,626.203674 383.818939,627.505188 
	C409.466187,630.269836 434.982086,629.781982 460.294189,624.604309 
	C493.002899,617.913757 524.119751,607.247437 552.167358,588.480652 
	C571.799500,575.344604 589.132507,559.790283 603.177979,540.906677 
	C619.201477,519.363708 630.348511,495.266602 637.709229,469.429138 
	C638.182861,467.766602 639.229919,466.267426 640.010193,464.692261 
	C640.537231,464.765259 641.064331,464.838257 641.591370,464.911224 
	C642.126587,466.853119 642.932373,468.764771 643.153198,470.741791 
	C644.572571,483.454071 645.229126,496.286896 647.336487,508.879242 
	C651.091003,531.314636 659.351685,552.201111 672.862427,570.582336 
	C694.477051,599.989136 722.828918,617.648376 760.288025,617.668579 
	C914.447998,617.751648 1068.607910,617.709290 1222.767944,617.657776 
	C1238.611816,617.652527 1254.346313,616.482544 1269.842163,612.720764 
	C1296.344482,606.287109 1319.496948,594.147522 1338.017456,573.783264 
	C1339.126587,572.563721 1340.754395,571.816040 1342.729004,570.438477 
	C1343.322876,573.270874 1343.768799,575.189026 1344.124023,577.123840 
	C1348.456909,600.728638 1361.786743,613.516357 1383.116699,616.623230 
	C1408.314331,620.293457 1432.145142,614.928589 1454.252319,602.372375 
	C1468.074341,594.521912 1480.104370,584.346130 1491.152466,572.942871 
	C1495.784912,568.161560 1496.860596,568.400024 1500.779297,573.621399 
	C1509.127197,584.744324 1518.716553,594.614624 1530.111450,602.663696 
	C1551.552490,617.809387 1574.136230,620.493286 1597.789795,608.398010 
	C1613.651245,600.287415 1625.864868,587.968323 1636.752808,574.019104 
	C1658.208984,546.530334 1668.414185,514.977905 1669.683838,480.671509 
	C1670.881470,448.312500 1666.532104,416.220764 1661.729736,384.262787 
	C1661.441772,382.347412 1660.280273,380.000275 1658.772217,379.054260 
	C1657.941284,378.532959 1655.182007,380.152802 1653.901978,381.422272 
	C1639.864868,395.344055 1625.969360,409.408325 1611.977051,423.375458 
	C1609.707764,425.640503 1607.422607,427.594879 1608.263672,431.394318 
	C1610.164917,439.982178 1612.241821,448.562622 1613.503784,457.254059 
	C1616.368164,476.981659 1619.453247,496.716980 1621.153931,516.560120 
	C1622.355713,530.580994 1613.971558,539.608521 1599.976929,542.291382 
	C1578.459351,546.416565 1553.201172,533.148315 1542.395630,512.902405 
	C1533.598633,496.419678 1533.496704,479.006775 1535.451172,461.322235 
	C1536.618164,450.762360 1538.941284,440.334106 1540.492432,429.809509 
	C1540.789551,427.793060 1539.909180,425.603027 1539.572021,423.493103 
	C1537.807739,423.933594 1535.837769,424.010834 1534.312622,424.873932 
	C1524.908081,430.196014 1515.587036,435.666992 1506.293701,441.181702 
	C1505.410522,441.705750 1504.603149,442.773499 1504.284180,443.758423 
	C1503.008545,447.696594 1502.023804,451.728180 1500.780151,455.677582 
	C1495.787964,471.532532 1491.263184,487.564453 1485.477295,503.126343 
	C1482.827515,510.252991 1478.733398,517.511353 1473.427979,522.857666 
	C1456.925293,539.487000 1436.355957,546.582520 1412.913330,546.019958 
	C1399.814087,545.705505 1389.694458,536.715027 1387.679688,523.396973 
	C1386.391846,514.884705 1388.492065,506.832947 1391.863892,499.138153 
	C1394.783203,492.475647 1397.883301,485.862000 1401.384277,479.490997 
	C1408.871338,465.866821 1416.669189,452.413574 1424.988037,437.747559 
	C1422.969238,437.537415 1420.649170,436.620178 1418.820435,437.214630 
	C1406.381714,441.258026 1394.037598,445.594849 1381.693726,449.924622 
	C1380.665283,450.285400 1379.660645,451.138428 1378.988770,452.023682 
	C1374.594116,457.813232 1370.229736,463.628113 1365.976807,469.522369 
	C1357.000732,481.962585 1348.492310,494.763336 1339.065308,506.849152 
	C1327.795166,521.297729 1312.191772,530.062744 1295.397827,536.411011 
	C1275.248291,544.027710 1254.048462,546.303162 1232.641602,546.309998 
	C1077.481934,546.359558 922.322144,546.255432 767.162598,546.397583 
	C749.018433,546.414246 733.863464,539.956543 720.514954,528.224304 
	C704.673767,514.301147 695.927246,496.351593 690.807312,476.291748 
	C684.452515,451.393341 683.240234,425.912140 682.864746,400.442078 
	C681.548035,311.139160 680.727844,221.829025 679.492310,132.524765 
	C679.112183,105.049561 678.044128,77.583160 677.141113,50.117630 
	C677.085815,48.437447 676.031616,45.764790 674.864929,45.399979 
	C673.326172,44.918816 670.847168,45.787624 669.409241,46.899593 
	C656.197876,57.115562 645.665649,69.978279 634.403442,82.166412 
	C628.575073,88.473923 626.812378,94.896523 627.252869,103.182213 
	C629.498352,145.421875 631.863464,187.667786 633.139771,229.943130 
	C634.703186,281.724213 635.542847,333.547119 632.035522,385.299805 
	C630.714783,404.787750 627.331543,423.890625 618.904541,441.826141 
	C609.636047,461.552612 595.444519,477.615204 581.042603,493.539642 
	C578.269226,496.606262 575.109741,499.323730 572.128418,502.202240 
	C571.078857,499.306610 571.012451,497.207275 571.089966,495.113281 
	C571.514587,483.638184 572.766235,472.128845 572.252808,460.697754 
	C571.270020,438.815521 563.470764,418.639801 554.863464,398.770386 
	C543.745300,373.104797 530.160889,348.715973 514.983154,325.333862 
	C491.634399,289.363647 467.411011,253.958710 443.313446,218.480515 
	C440.801392,214.782120 440.781006,212.085312 442.871033,208.569946 
	C447.624634,200.574539 452.154083,192.445999 456.895508,184.443176 
	C458.202820,182.236618 458.531830,180.743408 456.002106,179.090744 
	C447.396820,173.468857 439.072266,167.406891 430.363434,161.955673 
	C403.731903,145.285873 378.970642,126.228699 356.191254,104.600288 
	C351.945831,100.569344 350.927612,100.770432 348.864014,107.180573 
M104.575974,532.928162 
	C116.233086,529.845459 127.722481,525.430176 139.579758,523.937866 
	C171.147842,519.964844 202.784515,522.725098 234.257065,525.958679 
	C261.486603,528.756287 288.600983,532.674561 316.564148,536.197937 
	C320.172943,527.900085 324.182159,519.344788 327.653137,510.576447 
	C338.159607,484.035065 337.048676,458.367615 322.900421,433.041016 
	C304.947876,400.904419 283.453735,371.660126 256.772217,346.224640 
	C240.659332,330.864227 223.160828,317.913666 201.076904,312.640137 
	C182.839142,308.285065 164.743027,307.210266 146.791306,314.717651 
	C112.781631,328.940460 88.717827,369.649994 89.990746,401.786194 
	C90.543304,415.735962 92.138931,429.654144 93.561348,443.555939 
	C94.372528,451.483948 95.756790,459.354858 96.949127,467.241516 
	C97.427643,470.406616 95.915810,472.170929 93.682869,474.368927 
	C85.784218,482.143921 77.299461,489.645844 70.946190,498.605225 
	C54.806202,521.365784 44.978817,547.095642 38.406834,574.137207 
	C30.959400,604.780945 32.395588,635.434692 40.262363,665.512268 
	C47.260284,692.267944 56.297703,718.500061 64.746002,744.863586 
	C72.840416,770.122742 81.510658,795.197388 89.597534,820.458923 
	C95.970222,840.365601 102.448120,860.273193 107.766922,880.473267 
	C113.299454,901.484985 117.795547,922.787292 122.143822,944.085266 
	C124.126205,953.795044 124.663765,963.799805 125.895943,973.995911 
	C128.972534,974.282043 132.145660,974.362915 135.231537,974.923645 
	C138.404221,975.500244 139.542282,973.625061 140.059006,971.265442 
	C142.643341,959.463989 145.860550,947.730591 147.387726,935.785645 
	C149.408173,919.982544 151.041901,904.006653 151.063705,888.102600 
	C151.090866,868.301270 146.603836,849.005554 141.007187,829.988892 
	C134.298019,807.192200 128.090393,784.248474 121.552887,761.400635 
	C109.166451,718.111328 96.310890,674.951416 84.432167,631.523865 
	C78.598572,610.196777 74.325180,588.441345 73.806381,566.129761 
	C73.642761,559.093140 76.248306,553.585571 80.794525,548.635498 
	C87.236656,541.620911 95.335823,537.093140 104.575974,532.928162 
M1436.078369,834.556152 
	C1436.078369,880.828064 1436.078369,927.099976 1436.078369,973.488098 
	C1450.022461,973.488098 1463.219482,973.488098 1476.876587,973.488098 
	C1476.876587,970.688477 1476.876587,968.378418 1476.876587,966.068359 
	C1476.876709,921.572327 1476.951782,877.076050 1476.830078,832.580322 
	C1476.794800,819.707458 1480.844604,808.495178 1488.919922,798.594238 
	C1500.835205,783.985352 1520.625122,778.222412 1535.925659,786.076782 
	C1552.199219,794.430603 1561.699829,808.066406 1561.935791,826.749207 
	C1562.260132,852.407654 1561.895142,878.074524 1561.862915,903.737793 
	C1561.835938,925.235901 1561.973145,946.735046 1561.777222,968.231323 
	C1561.735474,972.827087 1563.197754,974.237305 1567.758423,974.079102 
	C1577.746338,973.732544 1587.752441,973.924744 1597.750854,973.858887 
	C1599.343994,973.848389 1600.935669,973.640564 1602.878174,973.498352 
	C1602.878174,970.981750 1602.875977,969.001648 1602.878296,967.021545 
	C1602.938965,914.860779 1603.007446,862.700012 1603.057251,810.539246 
	C1603.075073,791.881348 1594.870605,777.339417 1580.634644,765.796753 
	C1566.282349,754.159607 1549.949951,747.565369 1531.537231,745.804993 
	C1509.258179,743.674988 1488.402222,747.235657 1470.001587,760.713623 
	C1464.579712,764.684937 1459.620239,769.287415 1454.266846,773.752441 
	C1453.037354,772.230652 1451.747070,770.732849 1450.564575,769.154358 
	C1441.451416,756.989746 1429.293091,749.874084 1414.415649,747.172791 
	C1397.991821,744.190613 1381.624268,744.351746 1365.365967,748.169434 
	C1331.772827,756.057556 1305.388550,784.130249 1305.929321,821.943726 
	C1306.627563,870.762634 1306.086182,919.599304 1306.097778,968.428284 
	C1306.098145,970.170471 1306.302002,971.912598 1306.429810,973.954590 
	C1318.893921,973.954590 1330.720459,973.792358 1342.538208,974.039673 
	C1346.872925,974.130371 1347.707764,972.469238 1347.694092,968.484863 
	C1347.551758,927.155701 1347.589600,885.825928 1347.596313,844.496277 
	C1347.598022,834.019226 1347.613037,823.551880 1350.897949,813.402649 
	C1354.663940,801.767151 1360.203491,791.560974 1372.556763,787.169434 
	C1377.375977,785.456116 1382.406738,783.928955 1387.458862,783.356628 
	C1402.643188,781.636597 1415.746338,785.677124 1425.251953,798.493042 
	C1432.992798,808.929688 1436.089111,820.765869 1436.078369,834.556152 
M265.492798,779.118347 
	C259.240082,775.658997 252.854523,772.416626 246.765656,768.689575 
	C237.544540,763.045288 228.326447,757.354614 219.471985,751.161865 
	C203.513901,740.000793 205.877213,718.315002 214.957291,704.469543 
	C223.906158,690.824036 237.573608,685.717346 253.103378,685.571167 
	C285.431274,685.266846 317.764160,685.471436 350.094940,685.512573 
	C358.897583,685.523743 358.893646,685.598450 358.889709,677.058411 
	C358.885712,668.392395 358.890015,659.726318 358.891327,651.060303 
	C358.892365,644.126404 358.892334,644.076294 351.712921,644.143066 
	C319.553314,644.442078 287.394104,644.976135 255.234482,644.996582 
	C241.222580,645.005432 227.615128,646.963074 214.774536,652.289307 
	C197.485748,659.460693 181.892212,669.252502 171.890320,685.841309 
	C164.717575,697.737915 163.057098,711.062866 162.397736,724.634521 
	C161.134201,750.641174 169.263626,772.863342 190.563156,788.415344 
	C205.421143,799.264038 221.332123,808.802490 237.372421,817.864807 
	C255.021744,827.836060 273.446594,836.424561 291.363800,845.935242 
	C303.547302,852.402344 314.437286,860.687683 321.789917,872.625305 
	C331.905304,889.048401 331.469879,905.266113 319.506287,919.268127 
	C311.226746,928.958313 299.722137,932.872009 287.420319,932.973938 
	C247.759399,933.302490 208.093918,933.081970 168.430206,933.072998 
	C166.764740,933.072632 165.089096,933.188660 163.435944,933.045471 
	C159.998886,932.747864 158.758896,934.184326 158.809662,937.646729 
	C158.970901,948.643616 158.870972,959.644165 158.914169,970.643188 
	C158.917847,971.576843 159.235123,972.509338 159.444168,973.646057 
	C161.346970,973.763184 162.984604,973.951965 164.622192,973.951599 
	C191.119873,973.946045 217.618393,974.036682 244.114990,973.854980 
	C265.926147,973.705383 287.763123,973.784546 309.534607,972.689026 
	C323.140533,972.004395 336.087830,967.718018 346.447174,958.164978 
	C372.692474,933.962585 377.199188,903.305664 371.084656,870.221741 
	C366.955353,847.879028 352.266144,831.755249 335.023651,818.510925 
	C313.980255,802.347046 289.620728,791.590149 265.492798,779.118347 
M417.616272,923.906006 
	C429.777771,945.776550 447.211273,961.656982 470.555969,971.033569 
	C488.834808,978.375488 507.880951,978.493896 527.053467,977.563599 
	C543.415283,976.769714 558.843140,972.786011 572.843018,963.851318 
	C576.126221,961.756042 577.896240,959.549133 577.846680,955.517944 
	C577.676636,941.691040 577.773376,927.860962 577.732910,914.032227 
	C577.728333,912.461121 577.499817,910.890686 577.297668,908.344360 
	C574.150757,911.174438 571.616821,913.272217 569.289185,915.578125 
	C559.087219,925.684814 547.841553,934.442139 533.315247,936.622620 
	C516.217468,939.189209 499.424164,937.322632 483.929962,928.831909 
	C471.723755,922.143005 460.262360,914.539490 453.423218,901.747681 
	C444.001343,884.125183 442.630432,865.537292 445.802612,846.082214 
	C450.597595,816.674194 475.494293,795.367920 498.452148,788.928833 
	C510.988586,785.412659 523.830017,784.802979 536.494202,787.214661 
	C545.852661,788.996765 555.758728,790.945923 563.886292,795.537109 
	C582.755615,806.196289 591.697632,823.871460 591.933472,845.229675 
	C592.382385,885.878906 592.059692,926.536621 592.078003,967.190857 
	C592.078918,969.286316 592.272461,971.381714 592.372009,973.389404 
	C607.471619,973.389404 622.007202,973.389404 636.892761,973.389404 
	C636.892761,970.728210 636.892822,968.573975 636.892761,966.419800 
	C636.892700,925.765564 637.032898,885.110413 636.768677,844.457886 
	C636.718445,836.724670 636.001343,828.750122 633.995422,821.317749 
	C625.159058,788.577026 604.536255,765.814636 572.981934,753.747437 
	C547.558716,744.024902 521.004456,743.041016 494.301880,747.339844 
	C470.865265,751.112854 449.929352,760.396729 433.744843,778.242676 
	C418.464294,795.092041 408.389557,814.680481 404.915436,837.447449 
	C400.355530,867.330139 403.138733,896.095825 417.616272,923.906006 
M1202.723755,753.861206 
	C1176.573242,744.464661 1149.813110,743.112061 1122.563843,747.620178 
	C1103.124390,750.836243 1085.369995,757.852844 1070.578857,771.107239 
	C1046.430786,792.746460 1034.008057,820.274414 1032.287598,852.339722 
	C1030.682617,882.249329 1036.207153,910.637329 1054.237549,935.538147 
	C1066.581665,952.586182 1082.530762,964.787720 1102.386719,972.027710 
	C1120.051025,978.468689 1138.298218,978.353760 1156.626099,977.580750 
	C1173.040649,976.888367 1188.401123,972.571716 1202.395264,963.688171 
	C1205.533447,961.696045 1207.016724,959.449463 1206.960938,955.606018 
	C1206.765137,942.109192 1206.884033,928.607849 1206.883423,915.108215 
	C1206.883301,913.197876 1206.883423,911.287537 1206.883423,908.088562 
	C1203.293823,911.292358 1200.881592,913.774902 1198.145142,915.824585 
	C1190.468018,921.575134 1183.304565,928.544983 1174.765015,932.500610 
	C1156.577881,940.924927 1137.636963,938.968323 1119.501465,931.652893 
	C1103.811279,925.323975 1090.148071,915.936707 1081.897217,900.408569 
	C1068.491699,875.179749 1070.040283,832.890930 1093.370239,810.103149 
	C1104.779907,798.958618 1117.478516,790.602844 1133.582520,787.621582 
	C1145.951172,785.331848 1158.040405,786.274536 1170.312378,787.790100 
	C1203.396729,791.876038 1221.457642,819.117859 1221.229492,846.872986 
	C1220.896606,887.369995 1221.135986,927.871704 1221.146851,968.371399 
	C1221.147217,969.992920 1221.306396,971.614441 1221.406738,973.523865 
	C1236.298828,973.523865 1250.836548,973.523865 1265.957153,973.523865 
	C1265.957153,970.855225 1265.957275,968.556091 1265.957275,966.256897 
	C1265.957397,925.423828 1265.855225,884.590332 1266.017090,843.757935 
	C1266.068604,830.737183 1263.868652,818.332214 1258.314331,806.535339 
	C1246.764526,782.005066 1228.964722,764.026672 1202.723755,753.861206 
M830.838440,915.694885 
	C828.190979,912.710510 825.260620,909.929993 822.940918,906.709473 
	C804.854248,881.599976 805.477173,833.503906 831.513428,809.075562 
	C842.189392,799.058777 853.883911,791.427124 868.239441,788.117249 
	C879.240662,785.580811 890.312439,785.597168 901.443054,786.941162 
	C911.567871,788.163818 921.640137,789.991028 930.399719,795.405884 
	C948.094116,806.343994 957.746704,822.557983 957.965576,843.315247 
	C958.404785,884.966614 958.176819,926.626160 957.998413,968.281372 
	C957.978027,973.039917 959.591553,974.293457 964.009094,974.075134 
	C970.492371,973.754517 977.000122,973.916809 983.497559,973.898376 
	C989.763855,973.880676 996.030273,973.894531 1002.641846,973.894531 
	C1002.790344,971.012756 1003.010437,968.719482 1003.011597,966.426086 
	C1003.032715,924.936768 1003.091736,883.447205 1002.955811,841.958313 
	C1002.936340,836.007324 1002.752808,829.851440 1001.276672,824.144409 
	C992.631958,790.720886 972.664490,766.544495 940.255798,754.124390 
	C912.226013,743.382324 883.116516,742.616699 853.836731,748.779053 
	C837.175598,752.285583 821.732239,758.656860 808.840393,770.050171 
	C785.603516,790.585876 772.731262,816.419006 769.879272,847.330872 
	C767.587036,872.175049 770.531738,896.203125 781.385986,918.806580 
	C792.838318,942.655762 810.726318,960.114258 835.275940,970.426270 
	C854.389709,978.454956 874.432556,978.562988 894.668762,977.462463 
	C910.964417,976.576172 926.016235,972.143738 939.861694,963.430725 
	C942.761230,961.606079 943.964722,959.567993 943.937256,956.175842 
	C943.822571,942.014099 943.925598,927.850647 943.923035,913.687866 
	C943.922791,912.185059 943.753906,910.682312 943.616089,908.398010 
	C938.497986,913.037903 934.108887,916.837769 929.919495,920.846436 
	C913.895020,936.179382 894.527161,939.693909 873.470581,936.568359 
	C857.388550,934.181274 843.714783,926.460266 830.838440,915.694885 
M718.342896,644.147644 
	C706.075256,644.147644 693.807678,644.147644 680.948486,644.147644 
	C680.948486,647.878845 680.948547,650.837036 680.948547,653.795288 
	C680.948425,756.261414 680.948059,858.727600 680.949341,961.193726 
	C680.949402,963.859436 681.173828,966.544250 680.928772,969.186340 
	C680.586121,972.879578 681.909241,974.164673 685.695984,974.056702 
	C695.019104,973.791016 704.353271,973.912537 713.683044,973.885559 
	C717.295166,973.875061 720.907288,973.883911 724.706909,973.883911 
	C724.880554,971.917236 725.094116,970.626343 725.094238,969.335510 
	C725.103760,862.870728 725.071472,756.405884 725.177734,649.941162 
	C725.182312,645.392395 723.898499,643.405334 718.342896,644.147644 
z"/>
<path fill="#2691CF" opacity="1.000000" stroke="none" 
	d="
M349.016022,106.822830 
	C350.927612,100.770432 351.945831,100.569344 356.191254,104.600288 
	C378.970642,126.228699 403.731903,145.285873 430.363434,161.955673 
	C439.072266,167.406891 447.396820,173.468857 456.002106,179.090744 
	C458.531830,180.743408 458.202820,182.236618 456.895508,184.443176 
	C452.154083,192.445999 447.624634,200.574539 442.871033,208.569946 
	C440.781006,212.085312 440.801392,214.782120 443.313446,218.480515 
	C467.411011,253.958710 491.634399,289.363647 514.983154,325.333862 
	C530.160889,348.715973 543.745300,373.104797 554.863464,398.770386 
	C563.470764,418.639801 571.270020,438.815521 572.252808,460.697754 
	C572.766235,472.128845 571.514587,483.638184 571.089966,495.113281 
	C571.012451,497.207275 571.078857,499.306610 572.128418,502.202240 
	C575.109741,499.323730 578.269226,496.606262 581.042603,493.539642 
	C595.444519,477.615204 609.636047,461.552612 618.904541,441.826141 
	C627.331543,423.890625 630.714783,404.787750 632.035522,385.299805 
	C635.542847,333.547119 634.703186,281.724213 633.139771,229.943130 
	C631.863464,187.667786 629.498352,145.421875 627.252869,103.182213 
	C626.812378,94.896523 628.575073,88.473923 634.403442,82.166412 
	C645.665649,69.978279 656.197876,57.115562 669.409241,46.899593 
	C670.847168,45.787624 673.326172,44.918816 674.864929,45.399979 
	C676.031616,45.764790 677.085815,48.437447 677.141113,50.117630 
	C678.044128,77.583160 679.112183,105.049561 679.492310,132.524765 
	C680.727844,221.829025 681.548035,311.139160 682.864746,400.442078 
	C683.240234,425.912140 684.452515,451.393341 690.807312,476.291748 
	C695.927246,496.351593 704.673767,514.301147 720.514954,528.224304 
	C733.863464,539.956543 749.018433,546.414246 767.162598,546.397583 
	C922.322144,546.255432 1077.481934,546.359558 1232.641602,546.309998 
	C1254.048462,546.303162 1275.248291,544.027710 1295.397827,536.411011 
	C1312.191772,530.062744 1327.795166,521.297729 1339.065308,506.849152 
	C1348.492310,494.763336 1357.000732,481.962585 1365.976807,469.522369 
	C1370.229736,463.628113 1374.594116,457.813232 1378.988770,452.023682 
	C1379.660645,451.138428 1380.665283,450.285400 1381.693726,449.924622 
	C1394.037598,445.594849 1406.381714,441.258026 1418.820435,437.214630 
	C1420.649170,436.620178 1422.969238,437.537415 1424.988037,437.747559 
	C1416.669189,452.413574 1408.871338,465.866821 1401.384277,479.490997 
	C1397.883301,485.862000 1394.783203,492.475647 1391.863892,499.138153 
	C1388.492065,506.832947 1386.391846,514.884705 1387.679688,523.396973 
	C1389.694458,536.715027 1399.814087,545.705505 1412.913330,546.019958 
	C1436.355957,546.582520 1456.925293,539.487000 1473.427979,522.857666 
	C1478.733398,517.511353 1482.827515,510.252991 1485.477295,503.126343 
	C1491.263184,487.564453 1495.787964,471.532532 1500.780151,455.677582 
	C1502.023804,451.728180 1503.008545,447.696594 1504.284180,443.758423 
	C1504.603149,442.773499 1505.410522,441.705750 1506.293701,441.181702 
	C1515.587036,435.666992 1524.908081,430.196014 1534.312622,424.873932 
	C1535.837769,424.010834 1537.807739,423.933594 1539.572021,423.493103 
	C1539.909180,425.603027 1540.789551,427.793060 1540.492432,429.809509 
	C1538.941284,440.334106 1536.618164,450.762360 1535.451172,461.322235 
	C1533.496704,479.006775 1533.598633,496.419678 1542.395630,512.902405 
	C1553.201172,533.148315 1578.459351,546.416565 1599.976929,542.291382 
	C1613.971558,539.608521 1622.355713,530.580994 1621.153931,516.560120 
	C1619.453247,496.716980 1616.368164,476.981659 1613.503784,457.254059 
	C1612.241821,448.562622 1610.164917,439.982178 1608.263672,431.394318 
	C1607.422607,427.594879 1609.707764,425.640503 1611.977051,423.375458 
	C1625.969360,409.408325 1639.864868,395.344055 1653.901978,381.422272 
	C1655.182007,380.152802 1657.941284,378.532959 1658.772217,379.054260 
	C1660.280273,380.000275 1661.441772,382.347412 1661.729736,384.262787 
	C1666.532104,416.220764 1670.881470,448.312500 1669.683838,480.671509 
	C1668.414185,514.977905 1658.208984,546.530334 1636.752808,574.019104 
	C1625.864868,587.968323 1613.651245,600.287415 1597.789795,608.398010 
	C1574.136230,620.493286 1551.552490,617.809387 1530.111450,602.663696 
	C1518.716553,594.614624 1509.127197,584.744324 1500.779297,573.621399 
	C1496.860596,568.400024 1495.784912,568.161560 1491.152466,572.942871 
	C1480.104370,584.346130 1468.074341,594.521912 1454.252319,602.372375 
	C1432.145142,614.928589 1408.314331,620.293457 1383.116699,616.623230 
	C1361.786743,613.516357 1348.456909,600.728638 1344.124023,577.123840 
	C1343.768799,575.189026 1343.322876,573.270874 1342.729004,570.438477 
	C1340.754395,571.816040 1339.126587,572.563721 1338.017456,573.783264 
	C1319.496948,594.147522 1296.344482,606.287109 1269.842163,612.720764 
	C1254.346313,616.482544 1238.611816,617.652527 1222.767944,617.657776 
	C1068.607910,617.709290 914.447998,617.751648 760.288025,617.668579 
	C722.828918,617.648376 694.477051,599.989136 672.862427,570.582336 
	C659.351685,552.201111 651.091003,531.314636 647.336487,508.879242 
	C645.229126,496.286896 644.572571,483.454071 643.153198,470.741791 
	C642.932373,468.764771 642.126587,466.853119 641.591370,464.911224 
	C641.064331,464.838257 640.537231,464.765259 640.010193,464.692261 
	C639.229919,466.267426 638.182861,467.766602 637.709229,469.429138 
	C630.348511,495.266602 619.201477,519.363708 603.177979,540.906677 
	C589.132507,559.790283 571.799500,575.344604 552.167358,588.480652 
	C524.119751,607.247437 493.002899,617.913757 460.294189,624.604309 
	C434.982086,629.781982 409.466187,630.269836 383.818939,627.505188 
	C371.745300,626.203674 359.619843,625.384521 347.543518,624.104614 
	C345.677399,623.906860 343.949585,622.404053 342.157776,621.504761 
	C342.237793,620.890747 342.317780,620.276733 342.397797,619.662720 
	C349.556000,616.869141 356.811859,614.300598 363.855560,611.243103 
	C394.745728,597.835022 425.702118,584.566833 456.368378,570.661072 
	C470.423737,564.287720 484.097290,556.969482 497.528046,549.346802 
	C515.668579,539.051147 533.430847,528.086548 551.263611,517.257751 
	C552.317200,516.617981 553.386353,514.363159 553.045654,513.316345 
	C548.504761,499.363373 544.254211,485.278931 538.882263,471.640442 
	C523.071838,431.500763 499.803680,395.484589 475.831696,359.921631 
	C462.115570,339.573456 448.282959,319.294556 434.051788,299.305573 
	C421.736115,282.007111 408.712830,265.214111 396.130493,248.103485 
	C378.453644,224.064880 360.363251,200.303146 343.521301,175.689789 
	C335.646423,164.181183 333.290405,150.594299 338.351349,136.669327 
	C341.915863,126.861656 345.363922,117.011665 349.016022,106.822830 
z"/>
<path fill="#2692CF" opacity="1.000000" stroke="none" 
	d="
M104.221710,533.068115 
	C95.335823,537.093140 87.236656,541.620911 80.794525,548.635498 
	C76.248306,553.585571 73.642761,559.093140 73.806381,566.129761 
	C74.325180,588.441345 78.598572,610.196777 84.432167,631.523865 
	C96.310890,674.951416 109.166451,718.111328 121.552887,761.400635 
	C128.090393,784.248474 134.298019,807.192200 141.007187,829.988892 
	C146.603836,849.005554 151.090866,868.301270 151.063705,888.102600 
	C151.041901,904.006653 149.408173,919.982544 147.387726,935.785645 
	C145.860550,947.730591 142.643341,959.463989 140.059006,971.265442 
	C139.542282,973.625061 138.404221,975.500244 135.231537,974.923645 
	C132.145660,974.362915 128.972534,974.282043 125.895943,973.995911 
	C124.663765,963.799805 124.126205,953.795044 122.143822,944.085266 
	C117.795547,922.787292 113.299454,901.484985 107.766922,880.473267 
	C102.448120,860.273193 95.970222,840.365601 89.597534,820.458923 
	C81.510658,795.197388 72.840416,770.122742 64.746002,744.863586 
	C56.297703,718.500061 47.260284,692.267944 40.262363,665.512268 
	C32.395588,635.434692 30.959400,604.780945 38.406834,574.137207 
	C44.978817,547.095642 54.806202,521.365784 70.946190,498.605225 
	C77.299461,489.645844 85.784218,482.143921 93.682869,474.368927 
	C95.915810,472.170929 97.427643,470.406616 96.949127,467.241516 
	C95.756790,459.354858 94.372528,451.483948 93.561348,443.555939 
	C92.138931,429.654144 90.543304,415.735962 89.990746,401.786194 
	C88.717827,369.649994 112.781631,328.940460 146.791306,314.717651 
	C164.743027,307.210266 182.839142,308.285065 201.076904,312.640137 
	C223.160828,317.913666 240.659332,330.864227 256.772217,346.224640 
	C283.453735,371.660126 304.947876,400.904419 322.900421,433.041016 
	C337.048676,458.367615 338.159607,484.035065 327.653137,510.576447 
	C324.182159,519.344788 320.172943,527.900085 316.564148,536.197937 
	C288.600983,532.674561 261.486603,528.756287 234.257065,525.958679 
	C202.784515,522.725098 171.147842,519.964844 139.579758,523.937866 
	C127.722481,525.430176 116.233086,529.845459 104.221710,533.068115 
M246.132690,422.377594 
	C238.045807,414.750244 230.397964,406.580078 221.779739,399.609680 
	C204.363998,385.523926 184.615356,376.635284 161.816910,375.897186 
	C150.784515,375.540009 140.018906,376.845215 129.340591,380.081360 
	C124.759109,381.469818 123.687866,383.177765 124.051498,387.549500 
	C124.712357,395.494720 126.197639,403.728027 124.856865,411.407776 
	C122.188187,426.693604 117.823837,441.682526 114.198189,456.803253 
	C113.762634,458.619690 113.563652,460.492828 113.166344,462.870453 
	C131.175003,457.205627 148.464844,455.321381 165.848145,454.110626 
	C184.162476,452.834991 202.442322,453.228699 220.617966,456.014252 
	C236.654129,458.471924 252.664307,461.100555 268.708893,463.500427 
	C270.399231,463.753265 273.507141,463.383911 273.766022,462.589264 
	C274.389160,460.676514 274.534607,457.701202 273.428192,456.275543 
	C264.679840,445.002289 255.592850,433.991821 246.132690,422.377594 
z"/>
<path fill="#28679D" opacity="1.000000" stroke="none" 
	d="
M1436.078613,834.066772 
	C1436.089111,820.765869 1432.992798,808.929688 1425.251953,798.493042 
	C1415.746338,785.677124 1402.643188,781.636597 1387.458862,783.356628 
	C1382.406738,783.928955 1377.375977,785.456116 1372.556763,787.169434 
	C1360.203491,791.560974 1354.663940,801.767151 1350.897949,813.402649 
	C1347.613037,823.551880 1347.598022,834.019226 1347.596313,844.496277 
	C1347.589600,885.825928 1347.551758,927.155701 1347.694092,968.484863 
	C1347.707764,972.469238 1346.872925,974.130371 1342.538208,974.039673 
	C1330.720459,973.792358 1318.893921,973.954590 1306.429810,973.954590 
	C1306.302002,971.912598 1306.098145,970.170471 1306.097778,968.428284 
	C1306.086182,919.599304 1306.627563,870.762634 1305.929321,821.943726 
	C1305.388550,784.130249 1331.772827,756.057556 1365.365967,748.169434 
	C1381.624268,744.351746 1397.991821,744.190613 1414.415649,747.172791 
	C1429.293091,749.874084 1441.451416,756.989746 1450.564575,769.154358 
	C1451.747070,770.732849 1453.037354,772.230652 1454.266846,773.752441 
	C1459.620239,769.287415 1464.579712,764.684937 1470.001587,760.713623 
	C1488.402222,747.235657 1509.258179,743.674988 1531.537231,745.804993 
	C1549.949951,747.565369 1566.282349,754.159607 1580.634644,765.796753 
	C1594.870605,777.339417 1603.075073,791.881348 1603.057251,810.539246 
	C1603.007446,862.700012 1602.938965,914.860779 1602.878296,967.021545 
	C1602.875977,969.001648 1602.878174,970.981750 1602.878174,973.498352 
	C1600.935669,973.640564 1599.343994,973.848389 1597.750854,973.858887 
	C1587.752441,973.924744 1577.746338,973.732544 1567.758423,974.079102 
	C1563.197754,974.237305 1561.735474,972.827087 1561.777222,968.231323 
	C1561.973145,946.735046 1561.835938,925.235901 1561.862915,903.737793 
	C1561.895142,878.074524 1562.260132,852.407654 1561.935791,826.749207 
	C1561.699829,808.066406 1552.199219,794.430603 1535.925659,786.076782 
	C1520.625122,778.222412 1500.835205,783.985352 1488.919922,798.594238 
	C1480.844604,808.495178 1476.794800,819.707458 1476.830078,832.580322 
	C1476.951782,877.076050 1476.876709,921.572327 1476.876587,966.068359 
	C1476.876587,968.378418 1476.876587,970.688477 1476.876587,973.488098 
	C1463.219482,973.488098 1450.022461,973.488098 1436.078369,973.488098 
	C1436.078369,927.099976 1436.078369,880.828064 1436.078613,834.066772 
z"/>
<path fill="#28679D" opacity="1.000000" stroke="none" 
	d="
M265.804871,779.321228 
	C289.620728,791.590149 313.980255,802.347046 335.023651,818.510925 
	C352.266144,831.755249 366.955353,847.879028 371.084656,870.221741 
	C377.199188,903.305664 372.692474,933.962585 346.447174,958.164978 
	C336.087830,967.718018 323.140533,972.004395 309.534607,972.689026 
	C287.763123,973.784546 265.926147,973.705383 244.114990,973.854980 
	C217.618393,974.036682 191.119873,973.946045 164.622192,973.951599 
	C162.984604,973.951965 161.346970,973.763184 159.444168,973.646057 
	C159.235123,972.509338 158.917847,971.576843 158.914169,970.643188 
	C158.870972,959.644165 158.970901,948.643616 158.809662,937.646729 
	C158.758896,934.184326 159.998886,932.747864 163.435944,933.045471 
	C165.089096,933.188660 166.764740,933.072632 168.430206,933.072998 
	C208.093918,933.081970 247.759399,933.302490 287.420319,932.973938 
	C299.722137,932.872009 311.226746,928.958313 319.506287,919.268127 
	C331.469879,905.266113 331.905304,889.048401 321.789917,872.625305 
	C314.437286,860.687683 303.547302,852.402344 291.363800,845.935242 
	C273.446594,836.424561 255.021744,827.836060 237.372421,817.864807 
	C221.332123,808.802490 205.421143,799.264038 190.563156,788.415344 
	C169.263626,772.863342 161.134201,750.641174 162.397736,724.634521 
	C163.057098,711.062866 164.717575,697.737915 171.890320,685.841309 
	C181.892212,669.252502 197.485748,659.460693 214.774536,652.289307 
	C227.615128,646.963074 241.222580,645.005432 255.234482,644.996582 
	C287.394104,644.976135 319.553314,644.442078 351.712921,644.143066 
	C358.892334,644.076294 358.892365,644.126404 358.891327,651.060303 
	C358.890015,659.726318 358.885712,668.392395 358.889709,677.058411 
	C358.893646,685.598450 358.897583,685.523743 350.094940,685.512573 
	C317.764160,685.471436 285.431274,685.266846 253.103378,685.571167 
	C237.573608,685.717346 223.906158,690.824036 214.957291,704.469543 
	C205.877213,718.315002 203.513901,740.000793 219.471985,751.161865 
	C228.326447,757.354614 237.544540,763.045288 246.765656,768.689575 
	C252.854523,772.416626 259.240082,775.658997 265.804871,779.321228 
z"/>
<path fill="#28679D" opacity="1.000000" stroke="none" 
	d="
M417.425293,923.587952 
	C403.138733,896.095825 400.355530,867.330139 404.915436,837.447449 
	C408.389557,814.680481 418.464294,795.092041 433.744843,778.242676 
	C449.929352,760.396729 470.865265,751.112854 494.301880,747.339844 
	C521.004456,743.041016 547.558716,744.024902 572.981934,753.747437 
	C604.536255,765.814636 625.159058,788.577026 633.995422,821.317749 
	C636.001343,828.750122 636.718445,836.724670 636.768677,844.457886 
	C637.032898,885.110413 636.892700,925.765564 636.892761,966.419800 
	C636.892822,968.573975 636.892761,970.728210 636.892761,973.389404 
	C622.007202,973.389404 607.471619,973.389404 592.372009,973.389404 
	C592.272461,971.381714 592.078918,969.286316 592.078003,967.190857 
	C592.059692,926.536621 592.382385,885.878906 591.933472,845.229675 
	C591.697632,823.871460 582.755615,806.196289 563.886292,795.537109 
	C555.758728,790.945923 545.852661,788.996765 536.494202,787.214661 
	C523.830017,784.802979 510.988586,785.412659 498.452148,788.928833 
	C475.494293,795.367920 450.597595,816.674194 445.802612,846.082214 
	C442.630432,865.537292 444.001343,884.125183 453.423218,901.747681 
	C460.262360,914.539490 471.723755,922.143005 483.929962,928.831909 
	C499.424164,937.322632 516.217468,939.189209 533.315247,936.622620 
	C547.841553,934.442139 559.087219,925.684814 569.289185,915.578125 
	C571.616821,913.272217 574.150757,911.174438 577.297668,908.344360 
	C577.499817,910.890686 577.728333,912.461121 577.732910,914.032227 
	C577.773376,927.860962 577.676636,941.691040 577.846680,955.517944 
	C577.896240,959.549133 576.126221,961.756042 572.843018,963.851318 
	C558.843140,972.786011 543.415283,976.769714 527.053467,977.563599 
	C507.880951,978.493896 488.834808,978.375488 470.555969,971.033569 
	C447.211273,961.656982 429.777771,945.776550 417.425293,923.587952 
z"/>
<path fill="#28679D" opacity="1.000000" stroke="none" 
	d="
M1203.094971,753.976807 
	C1228.964722,764.026672 1246.764526,782.005066 1258.314331,806.535339 
	C1263.868652,818.332214 1266.068604,830.737183 1266.017090,843.757935 
	C1265.855225,884.590332 1265.957397,925.423828 1265.957275,966.256897 
	C1265.957275,968.556091 1265.957153,970.855225 1265.957153,973.523865 
	C1250.836548,973.523865 1236.298828,973.523865 1221.406738,973.523865 
	C1221.306396,971.614441 1221.147217,969.992920 1221.146851,968.371399 
	C1221.135986,927.871704 1220.896606,887.369995 1221.229492,846.872986 
	C1221.457642,819.117859 1203.396729,791.876038 1170.312378,787.790100 
	C1158.040405,786.274536 1145.951172,785.331848 1133.582520,787.621582 
	C1117.478516,790.602844 1104.779907,798.958618 1093.370239,810.103149 
	C1070.040283,832.890930 1068.491699,875.179749 1081.897217,900.408569 
	C1090.148071,915.936707 1103.811279,925.323975 1119.501465,931.652893 
	C1137.636963,938.968323 1156.577881,940.924927 1174.765015,932.500610 
	C1183.304565,928.544983 1190.468018,921.575134 1198.145142,915.824585 
	C1200.881592,913.774902 1203.293823,911.292358 1206.883423,908.088562 
	C1206.883423,911.287537 1206.883301,913.197876 1206.883423,915.108215 
	C1206.884033,928.607849 1206.765137,942.109192 1206.960938,955.606018 
	C1207.016724,959.449463 1205.533447,961.696045 1202.395264,963.688171 
	C1188.401123,972.571716 1173.040649,976.888367 1156.626099,977.580750 
	C1138.298218,978.353760 1120.051025,978.468689 1102.386719,972.027710 
	C1082.530762,964.787720 1066.581665,952.586182 1054.237549,935.538147 
	C1036.207153,910.637329 1030.682617,882.249329 1032.287598,852.339722 
	C1034.008057,820.274414 1046.430786,792.746460 1070.578857,771.107239 
	C1085.369995,757.852844 1103.124390,750.836243 1122.563843,747.620178 
	C1149.813110,743.112061 1176.573242,744.464661 1203.094971,753.976807 
z"/>
<path fill="#28679D" opacity="1.000000" stroke="none" 
	d="
M831.109741,915.925293 
	C843.714783,926.460266 857.388550,934.181274 873.470581,936.568359 
	C894.527161,939.693909 913.895020,936.179382 929.919495,920.846436 
	C934.108887,916.837769 938.497986,913.037903 943.616089,908.398010 
	C943.753906,910.682312 943.922791,912.185059 943.923035,913.687866 
	C943.925598,927.850647 943.822571,942.014099 943.937256,956.175842 
	C943.964722,959.567993 942.761230,961.606079 939.861694,963.430725 
	C926.016235,972.143738 910.964417,976.576172 894.668762,977.462463 
	C874.432556,978.562988 854.389709,978.454956 835.275940,970.426270 
	C810.726318,960.114258 792.838318,942.655762 781.385986,918.806580 
	C770.531738,896.203125 767.587036,872.175049 769.879272,847.330872 
	C772.731262,816.419006 785.603516,790.585876 808.840393,770.050171 
	C821.732239,758.656860 837.175598,752.285583 853.836731,748.779053 
	C883.116516,742.616699 912.226013,743.382324 940.255798,754.124390 
	C972.664490,766.544495 992.631958,790.720886 1001.276672,824.144409 
	C1002.752808,829.851440 1002.936340,836.007324 1002.955811,841.958313 
	C1003.091736,883.447205 1003.032715,924.936768 1003.011597,966.426086 
	C1003.010437,968.719482 1002.790344,971.012756 1002.641846,973.894531 
	C996.030273,973.894531 989.763855,973.880676 983.497559,973.898376 
	C977.000122,973.916809 970.492371,973.754517 964.009094,974.075134 
	C959.591553,974.293457 957.978027,973.039917 957.998413,968.281372 
	C958.176819,926.626160 958.404785,884.966614 957.965576,843.315247 
	C957.746704,822.557983 948.094116,806.343994 930.399719,795.405884 
	C921.640137,789.991028 911.567871,788.163818 901.443054,786.941162 
	C890.312439,785.597168 879.240662,785.580811 868.239441,788.117249 
	C853.883911,791.427124 842.189392,799.058777 831.513428,809.075562 
	C805.477173,833.503906 804.854248,881.599976 822.940918,906.709473 
	C825.260620,909.929993 828.190979,912.710510 831.109741,915.925293 
z"/>
<path fill="#28679E" opacity="1.000000" stroke="none" 
	d="
M718.818665,644.147339 
	C723.898499,643.405334 725.182312,645.392395 725.177734,649.941162 
	C725.071472,756.405884 725.103760,862.870728 725.094238,969.335510 
	C725.094116,970.626343 724.880554,971.917236 724.706909,973.883911 
	C720.907288,973.883911 717.295166,973.875061 713.683044,973.885559 
	C704.353271,973.912537 695.019104,973.791016 685.695984,974.056702 
	C681.909241,974.164673 680.586121,972.879578 680.928772,969.186340 
	C681.173828,966.544250 680.949402,963.859436 680.949341,961.193726 
	C680.948059,858.727600 680.948425,756.261414 680.948547,653.795288 
	C680.948547,650.837036 680.948486,647.878845 680.948486,644.147644 
	C693.807678,644.147644 706.075256,644.147644 718.818665,644.147339 
z"/>
<path fill="none" opacity="0" stroke="none" 
	d="
M246.371338,422.639069 
	C255.592850,433.991821 264.679840,445.002289 273.428192,456.275543 
	C274.534607,457.701202 274.389160,460.676514 273.766022,462.589264 
	C273.507141,463.383911 270.399231,463.753265 268.708893,463.500427 
	C252.664307,461.100555 236.654129,458.471924 220.617966,456.014252 
	C202.442322,453.228699 184.162476,452.834991 165.848145,454.110626 
	C148.464844,455.321381 131.175003,457.205627 113.166344,462.870453 
	C113.563652,460.492828 113.762634,458.619690 114.198189,456.803253 
	C117.823837,441.682526 122.188187,426.693604 124.856865,411.407776 
	C126.197639,403.728027 124.712357,395.494720 124.051498,387.549500 
	C123.687866,383.177765 124.759109,381.469818 129.340591,380.081360 
	C140.018906,376.845215 150.784515,375.540009 161.816910,375.897186 
	C184.615356,376.635284 204.363998,385.523926 221.779739,399.609680 
	C230.397964,406.580078 238.045807,414.750244 246.371338,422.639069 
z"/>
</svg>